<?xml version="1.0" standalone="no"?>
<!DOCTYPE svg PUBLIC "-//W3C//DTD SVG 20010904//EN"
 "http://www.w3.org/TR/2001/REC-SVG-20010904/DTD/svg10.dtd">
<svg version="1.0" xmlns="http://www.w3.org/2000/svg"
 width="150.000000pt" height="150.000000pt" viewBox="0 0 150.000000 150.000000"
 preserveAspectRatio="xMidYMid meet">

<g transform="translate(0.000000,150.000000) scale(0.100000,-0.100000)"
fill="#000000" stroke="none">
<path d="M735 1491 c-142 -37 -228 -153 -211 -285 4 -28 10 -79 13 -113 l5
-62 -45 -21 c-61 -29 -122 -96 -159 -176 -27 -58 -32 -63 -43 -47 -25 34 -40
0 -40 -90 1 -96 21 -151 80 -216 l38 -41 -29 -41 c-16 -23 -57 -73 -91 -111
-64 -72 -73 -88 -50 -88 30 0 170 42 245 74 l81 34 17 -76 17 -76 -27 -47
c-25 -45 -33 -88 -19 -102 3 -4 12 2 20 13 21 30 105 28 126 -3 l15 -22 11 28
c7 19 18 27 35 27 14 0 28 -4 31 -10 13 -21 26 -9 23 23 -3 29 -10 35 -83 72
-78 39 -80 41 -92 90 -14 57 -17 102 -5 108 21 13 54 -18 86 -82 20 -38 40
-72 46 -76 6 -3 21 20 36 54 15 34 30 61 35 61 14 0 49 -77 49 -109 0 -23 8
-34 37 -52 20 -13 52 -36 70 -52 32 -28 53 -29 53 -2 0 18 67 32 83 16 23 -23
39 -13 32 21 -6 26 -5 30 9 25 25 -10 20 20 -6 37 -13 7 -54 17 -91 20 -116
11 -126 15 -147 56 l-19 37 54 11 c140 28 244 118 295 256 12 31 27 59 34 63
19 12 40 126 33 178 -11 79 -36 115 -152 221 -26 24 -43 93 -24 104 15 10 -15
179 -41 230 -24 46 -74 92 -130 120 -48 25 -152 35 -205 21z m318 -150 c46
-55 44 -146 -3 -134 -11 3 -26 15 -32 27 -11 20 -10 20 9 3 18 -15 22 -16 32
-3 20 24 -6 86 -35 86 -9 0 -14 -12 -15 -32 0 -28 -2 -30 -9 -13 -10 24 -13
79 -3 88 13 14 32 6 56 -22z m-267 -35 c27 -27 34 -42 34 -73 0 -47 -22 -81
-64 -98 -66 -28 -136 21 -136 93 1 102 97 147 166 78z m262 -35 c3 -8 -1 -12
-9 -9 -7 2 -15 10 -17 17 -3 8 1 12 9 9 7 -2 15 -10 17 -17z m-442 -28 c-3 -3
-13 0 -22 8 -15 12 -14 14 3 20 17 6 32 -15 19 -28z m360 -18 c20 -14 44 -25
54 -25 30 0 78 -21 84 -37 9 -23 3 -25 -33 -12 -26 9 -49 7 -125 -10 -91 -21
-196 -40 -196 -36 0 2 25 15 55 30 38 18 65 40 86 71 16 24 32 44 34 44 2 0
21 -11 41 -25z m84 -100 c0 -13 -4 -14 -22 -4 -34 17 -34 19 -5 19 18 0 27 -5
27 -15z m-330 -25 c0 -12 115 -60 161 -66 33 -4 60 0 112 20 75 28 78 25 46
-44 -25 -57 -56 -90 -83 -90 -39 0 -140 56 -199 110 -67 62 -88 91 -57 83 11
-3 20 -9 20 -13z m350 1 c-8 -5 -44 -19 -80 -31 -70 -24 -128 -23 -188 3 -32
13 -28 14 80 15 62 1 129 5 148 11 46 12 59 12 40 2z m-432 -126 c89 -100 62
-328 -54 -464 -20 -23 -49 -48 -65 -56 -33 -18 -92 -19 -121 -4 -19 10 -19 12
12 31 46 27 66 53 103 128 29 59 32 74 32 160 l0 95 -37 3 c-38 3 -78 38 -78
69 0 25 90 73 136 73 35 0 47 -5 72 -35z m575 -51 c42 -59 55 -98 56 -159 l0
-50 -14 52 c-17 61 -45 119 -88 181 -26 39 -27 43 -7 32 12 -6 36 -32 53 -56z
m-35 -26 c35 -61 72 -166 72 -202 0 -24 -2 -23 -39 17 l-40 42 -16 -40 c-10
-22 -33 -74 -52 -115 l-34 -75 -20 25 c-11 14 -48 56 -82 94 l-61 69 -56 -62
-56 -63 -14 73 c-7 41 -16 83 -21 94 -7 18 -8 18 -8 -5 -1 -31 27 -191 34
-198 3 -3 20 12 38 33 17 22 43 53 57 68 l26 29 77 -91 c43 -50 82 -91 88 -91
10 0 66 115 88 183 15 44 20 45 45 11 37 -52 2 -176 -74 -258 -139 -151 -378
-168 -579 -42 l-42 27 40 30 c50 35 103 114 132 194 17 46 23 83 23 161 l1
101 80 -39 c93 -44 163 -60 222 -49 59 11 87 33 113 85 12 26 23 46 25 46 2 0
17 -24 33 -52z m-603 -570 c-4 -10 1 -51 10 -89 19 -78 37 -97 113 -125 45
-17 72 -38 72 -57 0 -5 -7 -4 -15 3 -8 6 -23 9 -33 6 -12 -4 -25 0 -33 10 -12
15 -11 16 11 10 19 -6 21 -5 10 3 -8 6 -21 11 -29 11 -8 0 -23 7 -33 17 -26
23 -22 11 7 -23 25 -30 37 -80 13 -56 -16 16 -120 15 -137 -1 -21 -19 -3 30
26 75 l25 37 -17 80 c-17 78 -14 138 6 126 5 -4 7 -16 4 -27z m298 -82 c18
-38 67 -65 165 -91 51 -13 71 -27 72 -49 0 -5 -7 -3 -15 4 -11 9 -22 9 -51 0
-33 -11 -38 -10 -57 9 -21 20 -21 21 -2 21 29 1 0 16 -45 23 l-35 6 43 -37
c60 -53 52 -60 -16 -13 -50 33 -60 46 -69 83 -6 23 -14 51 -18 61 -14 32 11
17 28 -17z m232 -81 c39 -18 22 -18 -40 -1 -41 12 -44 14 -20 15 17 0 44 -6
60 -14z"/>
<path d="M693 1264 c-15 -24 -15 -29 -2 -53 27 -49 99 -32 99 23 0 28 -29 56
-58 56 -12 0 -29 -11 -39 -26z m62 -25 c0 -7 -8 -15 -17 -17 -18 -3 -25 18
-11 32 10 10 28 1 28 -15z"/>
<path d="M570 90 c-12 -17 -17 -30 -11 -30 5 0 16 9 24 20 13 18 15 18 36 3
22 -15 23 -15 12 5 -18 33 -38 34 -61 2z"/>
<path d="M1028 133 c7 -3 16 -2 19 1 4 3 -2 6 -13 5 -11 0 -14 -3 -6 -6z"/>
</g>
</svg>
